<?xml version="1.0" encoding="iso-8859-1"?>
<!-- Generator: Adobe Illustrator 19.0.0, SVG Export Plug-In . SVG Version: 6.00 Build 0)  -->
<svg version="1.1" id="Layer_1" xmlns="http://www.w3.org/2000/svg" xmlns:xlink="http://www.w3.org/1999/xlink" x="0px" y="0px"
	 viewBox="0 0 512.003 512.003" style="enable-background:new 0 0 512.003 512.003;" xml:space="preserve">
<g>
	<g>
		<g>
			<path fill="#aaaaaa" d="M450.62,126.195L416.238,66.64c-3.53-6.114-10.051-9.878-17.111-9.878c-7.058,0-13.581,3.766-17.109,9.878
				l-36.696,63.561c-0.39,0.676-0.738,1.368-1.041,2.076c-4.558,8.78-6.96,18.592-6.96,28.517c0,34.151,27.784,61.934,61.934,61.934
				c34.15,0,61.934-27.784,61.934-61.934C461.193,148.389,457.539,136.447,450.62,126.195z M399.257,183.215
				c-12.364,0-22.421-10.059-22.421-22.421c0-3.908,0.971-7.606,2.883-10.991c0.259-0.458,0.498-0.925,0.718-1.397l18.69-32.373
				l17.652,30.575c0.279,0.483,0.578,0.955,0.897,1.412c2.618,3.76,4.003,8.178,4.003,12.773
				C421.679,173.156,411.621,183.215,399.257,183.215z"/>
			<path fill="#aaaaaa" d="M276.034,172.285v-62.235c0-10.911-8.846-19.757-19.757-19.757h-39.493V39.513h182.473
				c10.911,0,19.757-8.846,19.757-19.757S410.168,0,399.257,0H150.286c-10.911,0-19.757,8.846-19.757,19.757
				s8.846,19.757,19.757,19.757h26.985v50.781h-39.492c-10.911,0-19.757,8.846-19.757,19.757v62.235
				c-38.288,7.72-67.211,41.614-67.211,82.143v173.776c0,46.207,37.593,83.798,83.8,83.798h124.834
				c46.208,0,83.8-37.592,83.8-83.798V254.427C343.244,213.899,314.322,180.005,276.034,172.285z M157.535,129.807h78.986v40.822
				h-78.986V129.807z M303.731,428.203c0,24.419-19.866,44.285-44.286,44.285H134.611c-24.42,0-44.286-19.866-44.286-44.285V254.427
				c0-24.419,19.866-44.285,44.286-44.285h3.168h118.499h3.168c24.42,0,44.286,19.866,44.286,44.285V428.203z"/>
		</g>
	</g>
</g>
<g>
</g>
<g>
</g>
<g>
</g>
<g>
</g>
<g>
</g>
<g>
</g>
<g>
</g>
<g>
</g>
<g>
</g>
<g>
</g>
<g>
</g>
<g>
</g>
<g>
</g>
<g>
</g>
<g>
</g>
</svg>
